<svg xmlns="http://www.w3.org/2000/svg" width="12.791" height="21.768" viewBox="0 0 12.791 21.768">
  <path id="Path_2" data-name="Path 2" d="M610.466,294a3.543,3.543,0,0,1,1.451,1.229,1.135,1.135,0,0,1-.031,1.4,3.273,3.273,0,0,1-.245.265q-3.9,3.9-7.8,7.794a1.768,1.768,0,0,1-.216.158c.1.1.154.164.212.222l7.854,7.856a1.122,1.122,0,0,1,.26,1.511,5.966,5.966,0,0,1-1.148,1.146,1.069,1.069,0,0,1-1.338-.109c-.06-.049-.118-.1-.173-.157l-9.492-9.491a1.207,1.207,0,0,1-.279-1.538,1.659,1.659,0,0,1,.266-.328q4.758-4.763,9.526-9.517A3.8,3.8,0,0,1,610,294Z" transform="translate(-599.358 -294)" fill="#b2b2b2"/>
</svg>
