<svg xmlns="http://www.w3.org/2000/svg" width="22.858" height="31.997" viewBox="0 0 22.858 31.997">
  <g id="Group_7" data-name="Group 7" transform="translate(-783.023 -428.002)" opacity="0.45">
    <path id="Path_7" data-name="Path 7" d="M788.752,439.445h13.469a3.434,3.434,0,0,1,3.659,3.66q0,5.137,0,10.274a6.491,6.491,0,0,1-5.35,6.5,6.623,6.623,0,0,1-1.24.108q-4.835.013-9.669,0a6.508,6.508,0,0,1-6.576-6.592c0-3.389.047-6.779-.019-10.167a3.573,3.573,0,0,1,3.444-3.81c0-.136,0-.275,0-.414.02-1.414-.048-2.836.08-4.24a7.536,7.536,0,0,1,6.073-6.584,8.219,8.219,0,0,1,6.917,1.5,7.516,7.516,0,0,1,2.912,5.869,1.145,1.145,0,1,1-2.281.027,5.392,5.392,0,0,0-5.341-5.276,6.238,6.238,0,0,0-2.956.5,5.251,5.251,0,0,0-3.111,4.786C788.715,436.866,788.752,438.137,788.752,439.445Zm5.716,2.283h-7.815a1.169,1.169,0,0,0-1.327,1.339q0,5.155,0,10.311a4.222,4.222,0,0,0,4.327,4.333q4.8,0,9.6,0a4.224,4.224,0,0,0,4.344-4.352q0-5.138,0-10.275a1.18,1.18,0,0,0-1.349-1.356Z" transform="translate(0 0)" fill="#e2e2e2"/>
    <path id="Path_8" data-name="Path 8" d="M926.075,700.057c0-.547-.012-1.094.005-1.64a.568.568,0,0,0-.257-.528,2.246,2.246,0,0,1-.648-2.814,2.282,2.282,0,0,1,4.319,1.145,2.137,2.137,0,0,1-.89,1.673.564.564,0,0,0-.251.531c.01,1.093.007,2.187,0,3.281a1.147,1.147,0,1,1-2.282-.007C926.073,701.15,926.075,700.6,926.075,700.057Z" transform="translate(-132.756 -248.672)" fill="#e2e2e2"/>
  </g>
</svg>
