<svg xmlns="http://www.w3.org/2000/svg" width="29.808" height="20.959" viewBox="0 0 29.808 20.959">
  <g id="Group_9" data-name="Group 9" transform="translate(-672.781 -457.478)" opacity="0.45">
    <path id="Path_11" data-name="Path 11" d="M702.589,476.108a7.031,7.031,0,0,1-.524,1.24,2.489,2.489,0,0,1-2.082,1.087c-.058,0-.116,0-.174,0q-12.119,0-24.238,0a2.674,2.674,0,0,1-2.253-1.053,2.6,2.6,0,0,1-.532-1.627q0-7.8,0-15.6a2.618,2.618,0,0,1,2.753-2.681q5.019-.006,10.039,0h14.229a2.6,2.6,0,0,1,2.516,1.505,5.624,5.624,0,0,1,.266.823ZM675.8,459.232c.087.095.136.151.188.2q4.879,4.854,9.76,9.707a2.62,2.62,0,0,0,3.9-.017q4.863-4.83,9.718-9.666c.063-.062.119-.132.2-.227Zm.167,17.433H699.4l-7.347-7.5c-.429.438-.821.854-1.229,1.25a4.386,4.386,0,0,1-6.321-.042c-.387-.392-.771-.786-1.188-1.211Zm5.925-8.658-7.334-7.452v14.924Zm18.945-7.468-.064-.041-7.41,7.526,7.474,7.427Z" transform="translate(0 0)" fill="#e2e2e2"/>
  </g>
</svg>
