<svg xmlns="http://www.w3.org/2000/svg" width="21.345" height="25.349" viewBox="0 0 21.345 25.349">
  <g id="Group_13" data-name="Group 13" transform="translate(420.748 -274.739)" opacity="0.52">
    <path id="Path_13" data-name="Path 13" d="M-417.229,320.3c-.167-.038-.335-.072-.5-.113a3.959,3.959,0,0,1-3.013-3.826q-.009-6.732,0-13.465a3.943,3.943,0,0,1,3.922-3.932q4.765-.015,9.531,0a3.939,3.939,0,0,1,3.921,3.907q.017,6.757,0,13.514a3.947,3.947,0,0,1-3.375,3.87.833.833,0,0,0-.137.045Zm-1.535-10.694q0,3.3,0,6.608a1.986,1.986,0,0,0,2.111,2.105h9.184a1.988,1.988,0,0,0,2.124-2.117q0-6.571,0-13.143a1.987,1.987,0,0,0-2.123-2.117h-9.159a1.989,1.989,0,0,0-2.136,2.129Q-418.765,306.343-418.765,309.61Z" transform="translate(0 -20.216)" fill="#e2e2e2"/>
    <path id="Path_14" data-name="Path 14" d="M-372.15,286.081q0,3.762,0,7.524a.987.987,0,0,1-1.287.989.987.987,0,0,1-.689-.879c-.006-.09,0-.181,0-.272q0-7.326,0-14.651a1.976,1.976,0,0,0-1.7-2.048,2.774,2.774,0,0,0-.444-.022h-10.743a1,1,0,0,1-1.075-.982.991.991,0,0,1,.912-.994c.057,0,.115,0,.173,0q5.433,0,10.866,0a3.938,3.938,0,0,1,3.907,3.18,4.444,4.444,0,0,1,.081.884Q-372.144,282.443-372.15,286.081Z" transform="translate(-27.254 0)" fill="#e2e2e2"/>
  </g>
</svg>
